<?xml version="1.0" encoding="UTF-8"?>
<svg width="80px" height="80px" viewBox="0 0 80 80" version="1.1" xmlns="http://www.w3.org/2000/svg" xmlns:xlink="http://www.w3.org/1999/xlink">
    <!-- Generator: Sketch 50.2 (55047) - http://www.bohemiancoding.com/sketch -->
    <title>combo-starter</title>
    <desc>Created with Sketch.</desc>
    <defs></defs>
    <g id="combo-starter" stroke="none" stroke-width="1" fill="none" fill-rule="evenodd">
        <g id="Triangle" transform="translate(37.000000, 0.000000)" fill="#9B9B9B">
            <g id="Mask">
                <g>
                    <path d="M3,0 C3.64186428,5.43810126 4.18321946,9.54728651 4.62406553,12.3275557 C5.0649116,15.107825 5.52355643,17.3053064 6,18.92 L2.7991955,21.7733558 L0,18.92 C0.593027836,16.7325549 1.06455637,14.5350734 1.4145856,12.3275557 C1.76461483,10.1200381 2.2930863,6.01085281 3,0 Z M3,5.7784657 C2.59604931,11.3621328 2.29406562,14.6477982 2.09404892,15.6354619 C1.89403221,16.6231256 1.62458734,17.606299 1.28571429,18.5849821 L3,20.4088278 L4.71428571,18.5849821 C4.44203224,17.8625533 4.17994949,16.8793799 3.92803745,15.6354619 C3.6761254,14.3915438 3.36677959,11.1058784 3,5.7784657 Z" id="Combined-Shape"></path>
                </g>
            </g>
        </g>
        <g id="Triangle" transform="translate(40.000000, 70.000000) scale(1, -1) translate(-40.000000, -70.000000) translate(37.000000, 59.000000)" fill="#9B9B9B">
            <g id="Mask">
                <g>
                    <path d="M3,0 C3.64186428,5.43810126 4.18321946,9.54728651 4.62406553,12.3275557 C5.0649116,15.107825 5.52355643,17.3053064 6,18.92 L2.7991955,21.7733558 L0,18.92 C0.593027836,16.7325549 1.06455637,14.5350734 1.4145856,12.3275557 C1.76461483,10.1200381 2.2930863,6.01085281 3,0 Z M3,5.7784657 C2.59604931,11.3621328 2.29406562,14.6477982 2.09404892,15.6354619 C1.89403221,16.6231256 1.62458734,17.606299 1.28571429,18.5849821 L3,20.4088278 L4.71428571,18.5849821 C4.44203224,17.8625533 4.17994949,16.8793799 3.92803745,15.6354619 C3.6761254,14.3915438 3.36677959,11.1058784 3,5.7784657 Z" id="Combined-Shape"></path>
                </g>
            </g>
        </g>
        <g id="Triangle" transform="translate(10.000000, 41.000000) rotate(270.000000) translate(-10.000000, -41.000000) translate(7.000000, 30.000000)" fill="#9B9B9B">
            <g id="Mask">
                <g>
                    <path d="M3,0 C3.64186428,5.43810126 4.18321946,9.54728651 4.62406553,12.3275557 C5.0649116,15.107825 5.52355643,17.3053064 6,18.92 L2.7991955,21.7733558 L0,18.92 C0.593027836,16.7325549 1.06455637,14.5350734 1.4145856,12.3275557 C1.76461483,10.1200381 2.2930863,6.01085281 3,0 Z M3,5.7784657 C2.59604931,11.3621328 2.29406562,14.6477982 2.09404892,15.6354619 C1.89403221,16.6231256 1.62458734,17.606299 1.28571429,18.5849821 L3,20.4088278 L4.71428571,18.5849821 C4.44203224,17.8625533 4.17994949,16.8793799 3.92803745,15.6354619 C3.6761254,14.3915438 3.36677959,11.1058784 3,5.7784657 Z" id="Combined-Shape"></path>
                </g>
            </g>
        </g>
        <g id="Triangle" transform="translate(69.000000, 41.000000) scale(-1, 1) rotate(270.000000) translate(-69.000000, -41.000000) translate(66.000000, 30.000000)" fill="#9B9B9B">
            <g id="Mask">
                <g>
                    <path d="M3,0 C3.64186428,5.43810126 4.18321946,9.54728651 4.62406553,12.3275557 C5.0649116,15.107825 5.52355643,17.3053064 6,18.92 L2.7991955,21.7733558 L0,18.92 C0.593027836,16.7325549 1.06455637,14.5350734 1.4145856,12.3275557 C1.76461483,10.1200381 2.2930863,6.01085281 3,0 Z M3,5.7784657 C2.59604931,11.3621328 2.29406562,14.6477982 2.09404892,15.6354619 C1.89403221,16.6231256 1.62458734,17.606299 1.28571429,18.5849821 L3,20.4088278 L4.71428571,18.5849821 C4.44203224,17.8625533 4.17994949,16.8793799 3.92803745,15.6354619 C3.6761254,14.3915438 3.36677959,11.1058784 3,5.7784657 Z" id="Combined-Shape"></path>
                </g>
            </g>
        </g>
        <rect id="Rectangle" stroke="#979797" x="20.5" y="21.5" width="38" height="38"></rect>
        <circle id="Oval" stroke="#979797" stroke-width="0.96" cx="39.5" cy="40.5" r="31.5"></circle>
        <circle id="Oval" stroke="#979797" stroke-width="1.1025" cx="39.5" cy="40.5" r="35.5"></circle>
    </g>
</svg>